<svg  fill="#046329" height="512pt" viewBox="-96 0 512 512" width="512pt" xmlns="http://www.w3.org/2000/svg"><path d="m260 80.726562v-50.726562c0-16.542969-13.457031-30-30-30h-140c-16.542969 0-30 13.457031-30 30v50.726562c-33.878906 4.867188-60 34.070313-60 69.273438v312c0 27.570312 22.429688 50 50 50h220c27.570312 0 50-22.429688 50-50v-312c0-35.203125-26.121094-64.40625-60-69.273438zm-180-50.726562c0-5.515625 4.484375-10 10-10h140c5.515625 0 10 4.484375 10 10v50h-160zm-10 70h180c27.234375 0 49.4375 21.890625 49.976562 49h-279.953124c.539062-27.109375 22.742187-49 49.976562-49zm230 362c0 16.542969-13.457031 30-30 30h-220c-16.542969 0-30-13.457031-30-30v-13h280zm0-33h-280v-260h280zm0 0"/><path d="m250 349h-60c-5.523438 0-10 4.476562-10 10s4.476562 10 10 10h60c5.523438 0 10-4.476562 10-10s-4.476562-10-10-10zm0 0"/><path d="m70 369h80c5.523438 0 10-4.476562 10-10s-4.476562-10-10-10h-80c-5.523438 0-10 4.476562-10 10s4.476562 10 10 10zm0 0"/><path d="m180 229h70c5.523438 0 10-4.476562 10-10s-4.476562-10-10-10h-70c-5.523438 0-10 4.476562-10 10s4.476562 10 10 10zm0 0"/><path d="m170 269h80c5.523438 0 10-4.476562 10-10s-4.476562-10-10-10h-80c-5.523438 0-10 4.476562-10 10s4.476562 10 10 10zm0 0"/><path d="m170 309h50c5.523438 0 10-4.476562 10-10s-4.476562-10-10-10h-50c-5.523438 0-10 4.476562-10 10s4.476562 10 10 10zm0 0"/><path d="m250 389c-5.519531 0-10 4.488281-10 10s4.480469 10 10 10c5.511719 0 10-4.488281 10-10s-4.488281-10-10-10zm0 0"/><path d="m70 409h140c5.511719 0 10-4.488281 10-10s-4.488281-10-10-10h-140c-5.511719 0-10 4.488281-10 10s4.488281 10 10 10zm0 0"/><path d="m100 329c22.054688 0 40-17.945312 40-40v-60c0-22.054688-17.945312-40-40-40s-40 17.945312-40 40v60c0 22.054688 17.945312 40 40 40zm-20-100c0-11.027344 8.972656-20 20-20s20 8.972656 20 20v20h-40zm0 40h40v20c0 11.027344-8.972656 20-20 20s-20-8.972656-20-20zm0 0"/></svg>